<svg xmlns="http://www.w3.org/2000/svg" viewBox="0 0 478.4 196.19"><defs><style>.cls-1{fill:#f3e9e4}</style></defs><path d="M192 71.07h14q12.21 0 15.64 6.32a22.65 22.65 0 0 1 2 10.15c-.07.75-.11 1.51-.11 2.26h7.74v2.59h-8v-.07q.18-2.37.18-2.52h-4.51v2.59h4.33v9.18h-8.97v3.15h-.08l-11.69.08v4.77h-1.88V118h1v7.11h-8.46v-3.35h-1.16V119q0-4.82-.08-15.72h5.11v-2.78H192Zm10.53 9.18v15.37h3.23v-2.21h6.39q1.24-1.17 1.24-6.58c0-3.44-.77-5.42-2.33-5.94-.57-.43-1.89-.64-3.95-.64ZM236.29 71.37h18.42q9.25 0 12 6.51a23.46 23.46 0 0 1 1.16 7.67v2.25q0 7.83-3.42 11.92h-3.95v2h6v12.85h-3.54v2h5.34v7.59h-11.2V112h-4.32v-7.86h-7.52v13.31h1.61v7.67h-10.39a.17.17 0 0 1-.19-.19v-21.56h4.62v-1.54h-4.62Zm10.56 8.76v15.19h2.56q5.75 0 6.65-1.09a4.09 4.09 0 0 0 1.47-2.44h4v-1.92h-3.61v.19c-.2 1.15-.35 1.73-.45 1.73h-5.17v-1.92h5.42c.12 0 .19-.05.19-.15 0-1.55.07-2.43.07-2.63 0-3.36-.58-5.41-1.73-6.17a10.85 10.85 0 0 0-5-.79ZM296.63 71.34q11.58 0 15.23 8.08 2.06 3.94 2.06 15.23v.26h-4v1.81h4v19.43h-2.63v7h-5.22v2h-18.28v-2h-2.21v-7h-4.7v-5.49h2.78v-2.89h-2.78v2.89h-6.66v-2.89h5q-.08-6.58-.08-10.08v-4.58q0-12.8 4.33-17.11 3.99-4.66 13.16-4.66Zm-6.58 18.53h.11l-.11.15v4.89h-4v1.81h4q-.07 11.61-.08 17.52v1.91h9v-3h4.14v-.11q0-5.49-.08-15.3c0-.28 0-1 .08-2.07q0-10.61-1.24-13c-.86-1.55-2.42-2.33-4.7-2.33h-1.32c-2.73 0-4.42 1.21-5.08 3.61a37.16 37.16 0 0 0-.72 5.92Zm23.87 5h6.47v1.81h-6.47ZM343.47 71.3h10.34V89h-1.05v19.21h1.05v15.46H329v-3.31h-4.74v-6.09h2.86v-1.06h-2.86v-1.35h10.19v3.76h9.1v-5.22q0-2.67-.08-7.33h-8v-.79h8Zm-8.76 53.12h13.2v.72h-13.2Zm8.84-22.14v.79h3v-.79ZM365.8 71.64h26.36v8.76a.17.17 0 0 1-.19.19h-15.64v11.58h14v.11c0 .32-.05 2.22-.15 5.68-.08 0-.12 0-.12.07h.64v2.71h-12.11v11h-3.27v1.09h3.27v3.34h13.76v1.24h-1.09V124h-16.47v1.17H367V106h-1.2v-6.8h-8.57V98h8.57Zm.08 26.36v1.2h4.4V98ZM423.7 71.26q11.28 0 14.18 7.07a6.81 6.81 0 0 1 .86 2.26H434V82h5.12v-.07a4.69 4.69 0 0 0-.38-1.35h8.69V82h-8.24v.12a48.75 48.75 0 0 1 .9 6.5q0 .2-9.88.72v-.08q0-8.94-6.13-9H423c-3.06 0-4.93 1.31-5.6 3.91a38.2 38.2 0 0 0-.79 8.69v7.33l-.11 1.09H413V103h3.46v13h14.47v-13.49h8.35v13.57h-4.63v8.34H425v.72h-7.52v-.72h-7.63v-4.17h5.07v-1.8h-7.63v-6.17H404v-7.63h1.73c-.08-3.11-.11-5.58-.11-7.41q0-12.28 1.16-15.49a16.13 16.13 0 0 1 3.65-6.31q4.48-4.18 13.27-4.18Z" class="cls-1"/><path d="M446.82 71.26h31.58v9H468v37.26h4.74v1.09H468v4.1h-2.82v1.42h2v1h-9.58a.17.17 0 0 1-.19-.19V80.25h-10.59Zm17.41 46.25v1.09h3.65v-1.09Z" class="cls-1"/><path d="M185.19 176c0 3.44-1.89 6.85-5.67 10.2q-5.43 5-10.84 5-5.93 0-29.6-19.9A152.42 152.42 0 0 1 125 157.53q-7-7.74-15.68-18.45c-.93-1.18-2.06-2.56-3.4-4.16s-2.94-3.4-4.79-5.42q-5.3-6.16-9.26-10.77a94 94 0 0 1-7.24-9.51q-6.06 4.66-12.85 10.9a177.46 177.46 0 0 0-12.85 13q-12.23 13.23-22.8 26.58-1.77 2.14-4.16 5.16t-5.54 6.93q-3.16 3.91-5.74 7.37T16 185.82c-.42.67-1 1.59-1.64 2.77s-1.38 2.35-2.14 3.52a20.38 20.38 0 0 1-2.33 3c-.8.84-1.45 1.17-1.95 1-2 0-3.87-1.73-5.55-5.17A28.2 28.2 0 0 1 0 178.63q0-9.31 9.45-21.63a241.31 241.31 0 0 1 24.06-26q7.31-6.93 13.79-13.11t12.41-11.84Q71.43 95 71.43 91.33q0-2.89-13.1-26.45L47.37 45q-4.41-8-6.81-12.37-4.65-8.82-4.66-13.73t3.15-11.85q3.29-7 7.18-7 4.29 0 7.18 7.05c.68 1.35 1.41 3 2.21 4.85s1.74 4.06 2.83 6.49 2.1 4.75 3 6.93 1.84 4.33 2.77 6.43q2.39 5.67 5.1 10.89C71.16 46.13 73 49.55 75 52.91s4.3 7 6.86 11 5.4 8.23 8.51 12.85q7-7.93 14.61-15.37l17-17q9.31-9.31 13-13.35c1.18-1.26 2.58-2.83 4.22-4.72s3.34-4 5.1-6.24c.93-1.18 1.72-2.22 2.4-3.15s1.3-1.72 1.89-2.39 1.32-1.7 2.2-2.84 1.91-2.41 3.09-3.84q5.28-6.67 14.86-6.68a8.91 8.91 0 0 1 4.66 1.2 11.14 11.14 0 0 1 3.41 3.15 14 14 0 0 1 2.07 4.6 21.37 21.37 0 0 1 .7 5.42q0 7.8-10.84 7.81a7.15 7.15 0 0 0-4.41 2 40.57 40.57 0 0 0-4.85 5c-1.63 2-3.23 4.05-4.78 6.23l-4 5.55q-4.78 6.54-9.51 11.9t-9.26 9.76l-5.55 5.17q-3.64 3.41-9.32 8.44t-9.76 9.2Q103 90.7 100.15 94q5.79 7.18 11.47 14T123 121.44q5.67 6.56 11.59 12.85t12.35 12.47a152.57 152.57 0 0 0 12.28 10.71 98.52 98.52 0 0 0 11.4 7.69 40.32 40.32 0 0 0 6.05 2.89c1.17.42 2.14.76 2.9 1s1.21.42 1.38.5q4.24 1.53 4.24 6.45Z" style="fill:#23233c"/><path d="M146.87 99.89c-1 0-1.51-.35-1.51-1v-3.17c0-.73.52-1.09 1.54-1.09h13.39c1 0 1.54.36 1.54 1.09v3.12q0 1.05-1.5 1Z" class="cls-1"/></svg>
