<svg width="507" height="144" viewBox="0 0 507 144" fill="none" xmlns="http://www.w3.org/2000/svg">
<g clip-path="url(#clip0_5_557)">
<path fill-rule="evenodd" clip-rule="evenodd" d="M-4.22662 171.244L19.0619 171.244L29.0246 182.882C55.324 131.316 123.964 41.1003 184.326 0.2201C115.137 47.0788 37.6821 111.766 -4.22662 171.244Z" fill="url(#paint0_linear_5_557)"/>
<path d="M153.861 89.1135H131.792L113.299 71.9495C116.699 68.2477 120.101 64.5769 123.506 60.9407L153.861 89.1135ZM105.932 61.4866C106.416 61.0211 106.901 60.5551 107.386 60.0901C108.137 59.3703 108.888 58.6514 109.64 57.9329C108.402 59.1157 107.167 60.3005 105.932 61.4866ZM110.336 48.7161C106.702 52.1676 103.079 55.6335 99.4679 59.1126L68.7384 30.5911H90.8068L110.336 48.7161Z" fill="#F3F3F6"/>
<path d="M175.8 63.2L170.2 68.8H156.6L162.2 63.2H175.8ZM223.022 63.2C223.022 64.6933 222.462 66 221.342 67.12C220.222 68.24 218.915 68.8 217.422 68.8H195.822V80H189.422V52L195.022 46.4H189.422V40.8H217.422C218.915 40.8 220.222 41.36 221.342 42.48C222.462 43.6 223.022 44.9067 223.022 46.4V63.2ZM216.622 63.2V46.4H195.822V68L200.622 63.2H216.622ZM275.419 80H267.259L250.619 63.2H268.219V46.4H247.419V80H241.019V51.92L246.619 46.4H241.019V40.8H269.019C270.512 40.8 271.819 41.36 272.939 42.48C274.059 43.6 274.619 44.9067 274.619 46.4V61.6C274.619 65.8667 272.752 68 269.019 68H264.219V68.88L275.419 80ZM325.034 74.4C325.034 75.9467 324.474 77.28 323.354 78.4C322.288 79.4667 320.981 80 319.434 80H297.034C295.488 80 294.154 79.4667 293.034 78.4C291.968 77.28 291.434 75.9467 291.434 74.4V46.4C291.434 44.8533 291.968 43.5467 293.034 42.48C294.154 41.36 295.488 40.8 297.034 40.8H319.434C320.981 40.8 322.288 41.36 323.354 42.48C324.474 43.5467 325.034 44.8533 325.034 46.4V74.4ZM318.634 74.4V46.4H297.834V74.4H318.634ZM369.422 74.4C369.422 75.5733 368.889 76.7733 367.822 78C366.649 79.3333 365.315 80 363.822 80H347.022C345.529 80 344.222 79.44 343.102 78.32C341.982 77.2 341.422 75.8933 341.422 74.4V68.8H347.822V74.4H363.022V46.4H341.422V40.8H369.422V74.4ZM416.622 80H388.622V52L394.222 46.4H388.622V40.8H416.622V46.4H395.022V62.4L399.822 57.6H416.622V63.2H395.022V74.4H416.622V80ZM466.622 74.4C466.622 75.9467 466.062 77.28 464.942 78.4C463.875 79.4667 462.569 80 461.022 80H438.622C437.075 80 435.742 79.4667 434.622 78.4C433.555 77.28 433.022 75.9467 433.022 74.4V46.4C433.022 44.8533 433.555 43.5467 434.622 42.48C435.742 41.36 437.075 40.8 438.622 40.8H461.022C462.569 40.8 463.875 41.36 464.942 42.48C466.062 43.5467 466.622 44.8533 466.622 46.4V52H460.222V46.4H439.422V74.4H460.222V68.8H466.622V74.4ZM506.256 46.4H494.656V80H488.256V46.4H476.656V40.8H506.256V46.4Z" fill="#F3F3F6"/>
</g>
<defs>
<linearGradient id="paint0_linear_5_557" x1="194.284" y1="-11.4656" x2="217.814" y2="100.245" gradientUnits="userSpaceOnUse">
<stop stop-color="#F3F3F6" stop-opacity="0.9"/>
<stop offset="0.546209" stop-color="#F3F3F6" stop-opacity="0.4"/>
<stop offset="0.759615" stop-color="#F3F3F6" stop-opacity="0.2"/>
<stop offset="0.899038" stop-color="#F3F3F6" stop-opacity="0.1"/>
<stop offset="1" stop-color="#F3F3F6" stop-opacity="0"/>
</linearGradient>
<clipPath id="clip0_5_557">
<rect width="507" height="144" fill="white"/>
</clipPath>
</defs>
</svg>
