<?xml version="1.0" encoding="utf-8"?>
<!-- Generator: Adobe Illustrator 22.0.1, SVG Export Plug-In . SVG Version: 6.00 Build 0)  -->
<svg version="1.1" id="logo" xmlns="http://www.w3.org/2000/svg" xmlns:xlink="http://www.w3.org/1999/xlink" x="0px" y="0px"
	 viewBox="0 0 558.8 200.2" style="enable-background:new 0 0 558.8 200.2;" xml:space="preserve">
<g>
	<path style="fill:#F3E9E4;" d="M201.9,72.8h13.9c8.1,0,13.4,2.1,15.6,6.3c1.3,2.7,2,6,2,10.2c-0.1,0.8-0.1,1.5-0.1,2.3h7.7v2.6h-8
		V94c0.1-1.6,0.2-2.4,0.2-2.5h-4.5v2.6h4.3v9.2h-8.9v3.2h-0.1c-6.9,0.1-10.8,0.1-11.7,0.1v4.8h-1.9v8.5h1.1v7.1h-8.5v-3.3H202v-2.8
		c0-3.2,0-8.4-0.1-15.7h5.1v-2.8h-5.1V72.8z M212.4,82v15.4h3.2v-2.2h6.4c0.8-0.8,1.2-3,1.2-6.6c0-3.4-0.8-5.4-2.3-5.9
		c-0.6-0.4-1.9-0.6-3.9-0.6H212.4z"/>
	<path style="fill:#F3E9E4;" d="M246.2,73.1h18.4c6.2,0,10.2,2.2,12,6.5c0.8,2.2,1.2,4.8,1.2,7.7v2.3c0,5.2-1.1,9.2-3.4,11.9h-3.9v2
		h6v12.9h-3.5v2h5.3v7.6H267v-12.1h-4.3v-7.9h-7.5v13.3h1.6v7.7h-10.4c-0.1,0-0.2-0.1-0.2-0.2v-21.6h4.6v-1.5h-4.6V73.1z
		 M256.7,81.9v15.2h2.6c3.8,0,6.1-0.4,6.7-1.1c0.6-0.4,1.1-1.2,1.5-2.4h4v-1.9h-3.6v0.2c-0.2,1.2-0.4,1.7-0.5,1.7h-5.2v-1.9h5.4
		c0.1,0,0.2,0,0.2-0.2c0-1.6,0.1-2.4,0.1-2.6c0-3.4-0.6-5.4-1.7-6.2c-0.9-0.5-2.6-0.8-5-0.8H256.7z"/>
	<path style="fill:#F3E9E4;" d="M306.5,73.1c7.7,0,12.8,2.7,15.2,8.1c1.4,2.6,2.1,7.7,2.1,15.2v0.3h-4v1.8h4v19.4h-2.6v7h-5.2v2
		h-18.3v-2h-2.2v-7h-4.7v-5.5h2.8v-2.9h-2.8v2.9h-6.7v-2.9h5c-0.1-4.4-0.1-7.7-0.1-10.1v-4.6c0-8.5,1.4-14.2,4.3-17.1
		C296,74.6,300.4,73.1,306.5,73.1z M299.9,91.6h0.1l-0.1,0.2v4.9h-4v1.8h4c-0.1,7.7-0.1,13.6-0.1,17.5v1.9h9v-3h4.1v-0.1
		c0-3.7,0-8.8-0.1-15.3c0-0.3,0-1,0.1-2.1c0-7.1-0.4-11.4-1.2-13c-0.9-1.6-2.4-2.3-4.7-2.3h-1.3c-2.7,0-4.4,1.2-5.1,3.6
		C300.3,86.8,300.1,88.8,299.9,91.6z M323.8,96.6h6.5v1.8h-6.5V96.6z"/>
	<path style="fill:#F3E9E4;" d="M353.4,73h10.3v17.7h-1.1v19.2h1.1v15.5h-24.8v-3.3h-4.7V116h2.9v-1.1h-2.9v-1.4h10.2v3.8h9.1v-5.2
		c0-1.8,0-4.2-0.1-7.3h-8V104h8V73z M344.6,126.2h13.2v0.7h-13.2V126.2z M353.4,104v0.8h3V104H353.4z"/>
	<path style="fill:#F3E9E4;" d="M375.7,73.4H402v8.8c0,0.1-0.1,0.2-0.2,0.2h-15.6v11.6h14V94c0,0.3-0.1,2.2-0.2,5.7
		c-0.1,0-0.1,0-0.1,0.1h0.6v2.7h-12.1v11h-3.3v1.1h3.3v3.3h13.8v1.2h-1.1v6.6h-16.5v1.2h-7.8v-19.2h-1.2v-6.8h-8.6v-1.2h8.6V73.4z
		 M375.8,99.8v1.2h4.4v-1.2H375.8z"/>
	<path style="fill:#F3E9E4;" d="M433.6,73c7.5,0,12.2,2.4,14.2,7.1c0.6,1.1,0.9,1.9,0.9,2.3h-4.7v1.4h5.1v-0.1
		c0-0.3-0.1-0.7-0.4-1.4h8.7v1.4h-8.2v0.1c0.4,2,0.7,4.2,0.9,6.5c0,0.1-3.3,0.4-9.9,0.7V91c0-6-2-8.9-6.1-8.9h-1.1
		c-3.1,0-4.9,1.3-5.6,3.9c-0.5,2.2-0.8,5.1-0.8,8.7v7.3l-0.1,1.1h-3.5v1.7h3.5v13h14.5v-13.6h8.3v13.6h-4.6v8.3h-9.7v0.7h-7.5v-0.7
		h-7.6V122h5.1v-1.8h-7.6V114h-3.2v-7.6h1.7c-0.1-3.1-0.1-5.6-0.1-7.4c0-8.2,0.4-13.4,1.2-15.5c0.8-2.5,2-4.6,3.6-6.3
		C423.3,74.4,427.7,73,433.6,73z"/>
	<path style="fill:#F3E9E4;" d="M456.7,73h31.6v9h-10.5v37.3h4.7v1.1h-4.7v4.1H475v1.4h2v1h-9.6c-0.1,0-0.2-0.1-0.2-0.2V82h-10.5V73
		z M474.1,119.2v1.1h3.6v-1.1H474.1z"/>
</g>
<g>
	<path style="fill:#F1E9E4;" d="M405.9,140.8c2.4,0,4,0.8,4.6,2.3c0.2,0.4,0.3,0.6,0.3,0.7h-1.5v0.5h1.7v0c0-0.1,0-0.2-0.1-0.4h2.8
		v0.5h-2.7v0c0.1,0.7,0.2,1.4,0.3,2.1c0,0-1.1,0.1-3.2,0.2v0c0-1.9-0.7-2.9-2-2.9h-0.4c-1,0-1.6,0.4-1.8,1.3
		c-0.2,0.7-0.3,1.6-0.3,2.8v2.4l0,0.4h-1.1v0.5h1.1v4.2h4.7v-4.4h2.7v4.4h-1.5v2.7h-3.1v0.2h-2.4v-0.2h-2.5v-1.4h1.6v-0.6h-2.5v-2
		h-1v-2.5h0.6c0-1,0-1.8,0-2.4c0-2.7,0.1-4.3,0.4-5c0.3-0.8,0.6-1.5,1.2-2.1C402.6,141.2,404,140.8,405.9,140.8z"/>
	<path style="fill:#F1E9E4;" d="M421.7,140.8c2.5,0,4.2,0.9,4.9,2.6c0.4,0.9,0.7,2.5,0.7,4.9v0.1H426v0.6h1.3v6.3h-0.9v2.3h-1.7v0.6
		h-5.9v-0.6h-0.7v-2.3h-1.5v-1.8h0.9v-0.9h-0.9v0.9h-2.2v-0.9h1.6c0-1.4,0-2.5,0-3.3v-1.5c0-2.8,0.5-4.6,1.4-5.6
		C418.3,141.3,419.7,140.8,421.7,140.8z M419.6,146.8L419.6,146.8L419.6,146.8v1.6h-1.3v0.6h1.3c0,2.5,0,4.4,0,5.7v0.6h2.9v-1h1.3v0
		c0-1.2,0-2.8,0-5c0-0.1,0-0.3,0-0.7c0-2.3-0.1-3.7-0.4-4.2c-0.3-0.5-0.8-0.8-1.5-0.8h-0.4c-0.9,0-1.4,0.4-1.6,1.2
		C419.7,145.3,419.6,145.9,419.6,146.8z M427.3,148.5h2.1v0.6h-2.1V148.5z"/>
	<path style="fill:#F1E9E4;" d="M431.8,157.8h3.1v0.3h-3.1V157.8z M432,140.9h3.9c0.4,1.6,1.3,4.7,2.6,9.4h1.5c0,0,0.2-0.6,0.5-1.7
		c0.6-2.2,1.4-4.8,2.2-7.7h3.6v11.3h0.2v2.1h-1.1v0.4h1.1v3.7h-3.1v-1.4h0.4v-4.2h-0.6v-2.1h-0.4l0,0.1h-0.3v3h-1.1v1.4h-0.9v2.4
		h-2.1V156h-1.3v-2.1h-0.8v-2.1h-0.5c0-0.1-0.1-0.5-0.3-1.1h3.1l-0.1-0.4h-3.1l0.1,0.4h-0.4v2.7h0.2v3h-0.8v0.5h0.8v0.8h-2.8v-3.6
		H432V140.9z M434.1,150.3v0.4h1v-0.4H434.1z M435.1,149v0.2c0,0.2,0,0.5,0,1h0.3C435.2,149.5,435.1,149.1,435.1,149L435.1,149z
		 M438.7,150.7c0.1,0.6,0.2,0.9,0.3,0.9h0.4v1.6h0.5v-2.4h0.1v-0.1H438.7z M440.1,150.3l-0.1,0.4h2.8c0.1-0.2,0.1-0.3,0.1-0.4H440.1
		z M443.2,149.1l-0.3,1.2h0.3c0-0.5,0-0.9,0-1.1L443.2,149.1L443.2,149.1z M443.3,150.3v0.4h2.1v-0.4H443.3z M446.5,154.2h1.8v0.4
		h-1.8V154.2z"/>
	<path style="fill:#F1E9E4;" d="M451.1,140.7h4.5c2.6,0,4.3,0.7,5.1,2.1c0.4,0.9,0.6,2,0.6,3.3c0,0.2,0,0.5,0,0.7h2.5v0.8h-2.6v0
		c0-0.5,0.1-0.8,0.1-0.8h-1.5v0.8h1.4v3h-2.9v1h0c-2.2,0-3.5,0-3.8,0v1.6h-0.6v2.7h0.3v2.3h-2.7v-1.1h-0.4v-0.9c0-1,0-2.7,0-5.1h1.7
		v-0.9h-1.7V140.7z M454.5,143.7v5h1V148h2.1c0.3-0.3,0.4-1,0.4-2.1c0-1.1-0.3-1.8-0.8-1.9c-0.2-0.1-0.6-0.2-1.3-0.2H454.5z"/>
	<path style="fill:#F1E9E4;" d="M473.2,140.8c2.5,0,4.2,0.9,4.9,2.6c0.4,0.9,0.7,2.5,0.7,4.9v0.1h-1.3v0.6h1.3v6.3H478v2.3h-1.7v0.6
		h-5.9v-0.6h-0.7v-2.3h-1.5v-1.8h0.9v-0.9h-0.9v0.9H466v-0.9h1.6c0-1.4,0-2.5,0-3.3v-1.5c0-2.8,0.5-4.6,1.4-5.6
		C469.8,141.3,471.3,140.8,473.2,140.8z M471.1,146.8L471.1,146.8L471.1,146.8v1.6h-1.3v0.6h1.3c0,2.5,0,4.4,0,5.7v0.6h2.9v-1h1.3v0
		c0-1.2,0-2.8,0-5c0-0.1,0-0.3,0-0.7c0-2.3-0.1-3.7-0.4-4.2c-0.3-0.5-0.8-0.8-1.5-0.8H473c-0.9,0-1.4,0.4-1.6,1.2
		C471.2,145.3,471.2,145.9,471.1,146.8z M478.9,148.5h2.1v0.6h-2.1V148.5z"/>
	<path style="fill:#F1E9E4;" d="M483.8,140.8h3.6c0,0,0.4,0.9,1.1,2.8c0.1,0.1,0.8,1.9,2.2,5.5h0.9v-8.3h3.1v9.9h0.4v3.9h-1.3v0.7
		h1.3v2.3h-4.7v-2.9h-0.8c-1.1-2.7-1.9-4.6-2.3-5.7v-2.9h-0.4v9h-0.7v3.1h-2.9v-6.7h0.5v0C483.8,145.7,483.8,142.2,483.8,140.8z
		 M489,149.2v0.6h1.9c-0.2-0.4-0.3-0.6-0.3-0.6H489z M490.4,158h5.7v0.3h-5.7V158z M491.7,149.2v0.6H491c0.4,1,0.7,1.7,0.7,2h0v-0.1
		c-0.1-1.1-0.1-1.7-0.1-1.9h1.4v-0.6H491.7z"/>
	<path style="fill:#F1E9E4;" d="M500.6,140.9h8.6v2.8c0,0,0,0.1-0.1,0.1h-5.1v3.8h4.6v0c0,0.1,0,0.7,0,1.8c0,0,0,0,0,0h0.2v0.9h-3.9
		v3.6h-1.1v0.4h1.1v1.1h4.5v0.4h-0.4v2.1h-5.3v0.4H501v-6.2h-0.4v-2.2h-2.8v-0.4h2.8V140.9z M500.7,149.5v0.4h1.4v-0.4H500.7z"/>
	<path style="fill:#F1E9E4;" d="M514.2,140.8h3.6c0,0,0.4,0.9,1.1,2.8c0.1,0.1,0.8,1.9,2.2,5.5h0.9v-8.3h3.1v9.9h0.4v3.9h-1.3v0.7
		h1.3v2.3h-4.7v-2.9H520c-1.1-2.7-1.9-4.6-2.3-5.7v-2.9h-0.4v9h-0.7v3.1h-2.9v-6.7h0.5v0C514.2,145.7,514.2,142.2,514.2,140.8z
		 M519.5,149.2v0.6h1.9c-0.2-0.4-0.3-0.6-0.3-0.6H519.5z M520.9,158h5.7v0.3h-5.7V158z M522.1,149.2v0.6h-0.7c0.4,1,0.7,1.7,0.7,2h0
		v-0.1c-0.1-1.1-0.1-1.7-0.1-1.9h1.4v-0.6H522.1z"/>
	<path style="fill:#F1E9E4;" d="M529.4,140.8h10.3v2.9h-3.4v12.1h1.5v0.4h-1.5v1.3h-0.9v0.5h0.6v0.3h-3.1c0,0-0.1,0-0.1-0.1v-14.5
		h-3.4V140.8z M535,155.8v0.4h1.2v-0.4H535z"/>
	<path style="fill:#F1E9E4;" d="M541.1,153.1h1.2v0.6h-1.2V153.1z M548,140.8c1.9,0,3.2,0.6,3.9,1.9c0.5,0.9,0.7,1.9,0.7,2.8h0
		c-1.3,0.1-2.2,0.2-2.7,0.2c0-0.6-0.2-1.2-0.6-1.6c-0.4-0.2-0.7-0.3-1-0.3h-0.5c-0.8,0-1.3,0.3-1.5,1c0,0.2-0.1,0.3-0.1,0.4v0.3
		c0,0.9,0.5,1.6,1.4,2c0.1,0.1,0.7,0.4,2,0.9c0.7,0.3,1.3,0.7,1.9,1.1v0h-3.1v0.3h4v0.5h0.5v5.3h-1v2.7h-7.8v-2.7h-1.8v-1.8h1v-0.6
		h-1v-0.4h3.6v2.9h3.6v-4.4h-2.7v-1.4h-3.4v-0.3h1.6v0c-1.4-1-2.1-2.3-2.1-4v-0.2c0-1.5,0.4-2.6,1.3-3.3
		C545,141.2,546.3,140.8,548,140.8z M552.4,149.4h1.2v0.3h-1.2V149.4z"/>
</g>
<g>
	<path style="fill:#23233C;" d="M195.1,177.7c0,3.4-1.9,6.8-5.7,10.2c-3.6,3.4-7.2,5-10.8,5c-3.9,0-13.8-6.6-29.6-19.9
		c-4.7-4-9.4-8.6-14-13.8s-9.9-11.3-15.7-18.5c-0.9-1.2-2.1-2.6-3.4-4.2c-1.3-1.6-2.9-3.4-4.8-5.4c-3.5-4.1-6.6-7.7-9.3-10.8
		c-2.6-3.1-5.1-6.2-7.2-9.5c-4,3.1-8.3,6.7-12.8,10.9s-8.8,8.5-12.8,13c-8.1,8.8-15.7,17.7-22.8,26.6c-1.2,1.4-2.6,3.1-4.2,5.2
		c-1.6,2-3.4,4.3-5.5,6.9c-2.1,2.6-4,5.1-5.7,7.4c-1.7,2.3-3.3,4.5-4.7,6.6c-0.4,0.7-1,1.6-1.6,2.8c-0.7,1.2-1.4,2.4-2.1,3.5
		s-1.5,2.2-2.3,3c-0.8,0.8-1.4,1.2-2,1c-2,0-3.9-1.7-5.5-5.2c-1.6-3.3-2.4-7.4-2.4-12.3c0-6.2,3.1-13.4,9.4-21.7
		c6.4-8.1,14.4-16.8,24.1-26c4.9-4.6,9.5-9,13.8-13.1c4.3-4.1,8.5-8.1,12.4-11.8c7.8-7.4,11.7-12.3,11.7-14.7
		c0-1.9-4.4-10.7-13.1-26.5c-4.4-7.9-8-14.5-11-19.8c-2.9-5.3-5.2-9.5-6.8-12.4c-3.1-5.9-4.7-10.5-4.7-13.7c0-3.4,1-7.3,3.1-11.8
		c2.2-4.7,4.6-7.1,7.2-7.1c2.9,0,5.2,2.4,7.2,7.1c0.7,1.3,1.4,3,2.2,4.9c0.8,1.9,1.7,4.1,2.8,6.5c1.1,2.4,2.1,4.7,3,6.9
		c0.9,2.2,1.8,4.3,2.8,6.4c1.6,3.8,3.3,7.4,5.1,10.9c1.8,3.5,3.7,6.9,5.6,10.3c2,3.4,4.3,7,6.9,11c2.6,3.9,5.4,8.2,8.5,12.8
		c4.7-5.3,9.6-10.4,14.6-15.4l17-17c6.2-6.2,10.5-10.7,13-13.4c1.2-1.3,2.6-2.8,4.2-4.7s3.3-4,5.1-6.2c0.9-1.2,1.7-2.2,2.4-3.1
		c0.7-0.9,1.3-1.7,1.9-2.4c0.6-0.8,1.3-1.7,2.2-2.8s1.9-2.4,3.1-3.8c3.5-4.5,8.5-6.7,14.9-6.7c1.8,0,3.3,0.4,4.7,1.2
		c1.3,0.8,2.5,1.8,3.4,3.1c0.9,1.3,1.6,2.8,2.1,4.6c0.5,1.8,0.7,3.6,0.7,5.4c0,5.2-3.6,7.8-10.8,7.8c-1.3,0-2.8,0.7-4.4,2
		c-1.6,1.3-3.2,3-4.9,5c-1.6,2-3.2,4.1-4.8,6.2c-1.6,2.2-2.9,4-4,5.5c-3.2,4.4-6.4,8.3-9.5,11.9c-3.1,3.6-6.2,6.8-9.3,9.8
		c-1.3,1.2-3.1,2.9-5.5,5.2c-2.4,2.3-5.5,5.1-9.3,8.4c-3.7,3.4-7,6.4-9.8,9.2c-2.8,2.8-5.2,5.2-7.1,7.4c3.9,4.8,7.7,9.5,11.5,14
		c3.8,4.6,7.6,9.1,11.3,13.4c3.8,4.4,7.6,8.7,11.6,12.8c3.9,4.2,8.1,8.4,12.3,12.5c4.3,4.1,8.4,7.7,12.3,10.7s7.7,5.6,11.4,7.7
		c1.8,1.1,3.9,2.1,6,2.9c1.2,0.4,2.1,0.8,2.9,1s1.2,0.4,1.4,0.5C193.6,172.3,195.1,174.4,195.1,177.7z"/>
</g>
<g>
	<path style="fill:#F3E9E4;" d="M156.7,101.6c-1,0-1.5-0.4-1.5-1.1v-3.1c0-0.7,0.5-1.1,1.5-1.1h13.4c1,0,1.5,0.4,1.5,1.1v3.1
		c0,0.7-0.5,1.1-1.5,1.1H156.7z"/>
</g>
</svg>
