<svg xmlns="http://www.w3.org/2000/svg" width="500" height="500" fill="none" viewBox="0 0 500 500"><g clip-path="url(#a)"><path fill="#0f0f10" d="M0 0h500v500H0z"/><g fill="#f3f3f6" clip-path="url(#b)"><path fill-rule="evenodd" d="m1.488 500.5 38.806-.125 47.5-.153C161.5 347 296.279 150.871 507.167-5.313 265.438 173.712 187.127 293.219 1.488 500.5" clip-rule="evenodd"/><path d="M420 375h-88.148l-87.741-87.095a5338 5338 0 0 1 41.897-45.911zM263.059 219.213a7206 7206 0 0 0-44.592 43.236l-2.974-2.952c18.475-21.457 28.487-32.973 28.508-32.997.047-.044 4.907-4.568 13.643-12.663zm-20.911-20.757a7235 7235 0 0 0-44.593 43.235L80 125h88.148z"/></g></g><defs><clipPath id="a"><path fill="#fff" d="M0 0h500v500H0z"/></clipPath><clipPath id="b"><path fill="#fff" d="M0 0h500v500H0z"/></clipPath></defs></svg>